<svg xmlns="http://www.w3.org/2000/svg" viewBox="0 0 512 512"><defs><style>.cls-1{fill:none;stroke:#005f87;stroke-miterlimit:10;stroke-width:21.89px;}.cls-2{fill:#005f87;}</style></defs><g id="Ebene_1" data-name="Ebene 1"><path class="cls-1" d="M154,199.63V113.28c0-56.52,45.68-102.34,102-102.34h0c56.34,0,102,45.82,102,102.34v86.35"/><path class="cls-1" d="M256,199.63h0A150.71,150.71,0,0,1,406.71,350.34V501.06a0,0,0,0,1,0,0H105.29a0,0,0,0,1,0,0V350.34A150.71,150.71,0,0,1,256,199.63Z" transform="translate(512 700.68) rotate(180)"/><path class="cls-2" d="M371,362.8a116.17,116.17,0,0,0,.09-23.88L343,328.79a92.29,92.29,0,0,0-4-12.36,90.6,90.6,0,0,0-5.78-11.63l13-26.92a115.3,115.3,0,0,0-16.8-17l-27.05,12.71a89.92,89.92,0,0,0-23.91-10l-9.88-28.2a114.78,114.78,0,0,0-23.88-.09l-10.13,28.09a89.28,89.28,0,0,0-24,9.81l-26.91-12.94a114.75,114.75,0,0,0-17,16.79l12.71,27a89.92,89.92,0,0,0-10,23.91L141,337.88a116.17,116.17,0,0,0-.09,23.88L169,371.9a89.4,89.4,0,0,0,9.81,24L165.9,422.81a115.72,115.72,0,0,0,16.8,17l27.05-12.71a90.27,90.27,0,0,0,23.91,10l9.88,28.2a114.78,114.78,0,0,0,23.88.09l10.13-28.1a89.51,89.51,0,0,0,12.36-4,91.38,91.38,0,0,0,11.64-5.78l26.91,12.95a115.3,115.3,0,0,0,17-16.8l-12.71-27a90.19,90.19,0,0,0,10-23.91ZM286.2,352.63a30.29,30.29,0,1,1-27.91-32.49A30.28,30.28,0,0,1,286.2,352.63Z"/></g></svg>